<?xml version="1.0" standalone="no"?><!-- Generator: Gravit.io --><svg xmlns="http://www.w3.org/2000/svg" xmlns:xlink="http://www.w3.org/1999/xlink" style="isolation:isolate" viewBox="-1.5 -1.5 303 303" width="303" height="303"><g style="isolation:isolate"><path d=" M 0 150.00000000000003 C 0 67.212747 67.21274699999995 2.842170943040401e-14 149.99999999999997 0 C 232.787253 0 300 67.21274699999995 300 149.99999999999997 C 300 232.78725299999996 232.78725300000002 300 150.00000000000006 300 C 67.21274700000002 300 0 232.78725300000002 0 150.00000000000003 Z " fill="rgb(255,255,255)" vector-effect="non-scaling-stroke" stroke-width="3" stroke="rgb(0,0,0)" stroke-linejoin="miter" stroke-linecap="square" stroke-miterlimit="3"/><path d=" M 19 162.5 C 19 159.46446739 20.792339919999996 157 23 157 C 25.20766008 157 27 159.46446739 27 162.5 C 27 165.53553261 25.20766008 168 23 168 C 20.79233992 168 19 165.53553261 19 162.5 Z " fill="rgb(0,0,0)"/><path d=" M 265 83.5 C 265 80.46446739 267.01638241 78 269.5 78 C 271.98361759 78 274 80.46446739 274 83.5 C 274 86.53553261 271.98361759 89 269.5 89 C 267.01638241 89 265 86.53553261 265 83.5 Z " fill="rgb(0,0,0)"/><line x1="117" y1="17" x2="171" y2="175" vector-effect="non-scaling-stroke" stroke-width="3" stroke="rgb(0,0,0)" stroke-linejoin="miter" stroke-linecap="square" stroke-miterlimit="3"/><line x1="34" y1="242" x2="296" y2="120" vector-effect="non-scaling-stroke" stroke-width="3" stroke="rgb(0,0,0)" stroke-linejoin="miter" stroke-linecap="square" stroke-miterlimit="3"/></g></svg>